<svg xmlns="http://www.w3.org/2000/svg" xmlns:xlink="http://www.w3.org/1999/xlink" contentStyleType="text/css" data-diagram-type="ACTIVITY" height="546px" preserveAspectRatio="none" style="width:716px;height:546px;background:#F8FAFC;" version="1.1" viewBox="0 0 716 546" width="716px" zoomAndPan="magnify"><?plantuml $version$?><defs/><g><rect fill="#F8FAFC" height="546" style="stroke:none;stroke-width:1;" width="716" x="0" y="0"/><g class="title" data-source-line="13"><text fill="#000000" font-family="DejaVu Sans" font-size="14" font-weight="700" lengthAdjust="spacing" textLength="269.2061" x="222.8208" y="32.9951">Formal-first graph-kernel delivery</text></g><ellipse cx="381.5664" cy="62.2969" fill="#222222" rx="10" ry="10" style="stroke:#222222;stroke-width:1;"/><rect fill="#DBEAFE" height="33.9688" rx="12.5" ry="12.5" style="stroke:#334155;stroke-width:0.5;" width="259.4551" x="251.8389" y="92.2969"/><text fill="#000000" font-family="DejaVu Sans" font-size="12" lengthAdjust="spacing" textLength="239.4551" x="261.8389" y="113.4355">Define terms and observable semantics</text><rect fill="#C4B5FD" height="33.9688" rx="12.5" ry="12.5" style="stroke:#334155;stroke-width:0.5;" width="277.8066" x="242.6631" y="146.2656"/><text fill="#000000" font-family="DejaVu Sans" font-size="12" lengthAdjust="spacing" textLength="257.8066" x="252.6631" y="167.4043">Prove quotient and wavefront laws in Rocq</text><rect fill="#A7F3D0" height="33.9688" rx="12.5" ry="12.5" style="stroke:#334155;stroke-width:0.5;" width="247.1152" x="258.0088" y="200.2344"/><text fill="#000000" font-family="DejaVu Sans" font-size="12" lengthAdjust="spacing" textLength="227.1152" x="268.0088" y="221.373">Model explicit-frame lifecycle in TLA+</text><rect fill="#FDE68A" height="33.9688" rx="12.5" ry="12.5" style="stroke:#334155;stroke-width:0.5;" width="272.5566" x="245.2881" y="254.2031"/><text fill="#000000" font-family="DejaVu Sans" font-size="12" lengthAdjust="spacing" textLength="252.5566" x="255.2881" y="275.3418">Run exhaustive independent graph oracle</text><polygon fill="#FEF3C7" points="284.0247,308.1719,479.1082,308.1719,491.1082,320.1719,479.1082,332.1719,284.0247,332.1719,272.0247,320.1719,284.0247,308.1719" style="stroke:#B45309;stroke-width:0.5;stroke-linejoin:miter;stroke-miterlimit:10;"/><text fill="#000000" font-family="DejaVu Sans" font-size="11" lengthAdjust="spacing" textLength="195.0835" x="284.0247" y="323.98">All pre-implementation gates pass?</text><text fill="#000000" font-family="DejaVu Sans" font-size="11" lengthAdjust="spacing" textLength="19.0083" x="253.0164" y="317.5776">yes</text><text fill="#000000" font-family="DejaVu Sans" font-size="11" lengthAdjust="spacing" textLength="13.7017" x="491.1082" y="317.5776">no</text><rect fill="#BFDBFE" height="33.9688" rx="12.5" ry="12.5" style="stroke:#334155;stroke-width:0.5;" width="324.0605" x="44.3242" y="342.1719"/><text fill="#000000" font-family="DejaVu Sans" font-size="12" lengthAdjust="spacing" textLength="304.0605" x="54.3242" y="363.3105">Implement canonical CSR and iterative SCC kernel</text><rect fill="#A7F3D0" height="33.9688" rx="12.5" ry="12.5" style="stroke:#334155;stroke-width:0.5;" width="380.709" x="16" y="396.1406"/><text fill="#000000" font-family="DejaVu Sans" font-size="12" lengthAdjust="spacing" textLength="360.709" x="26" y="417.2793">Check implementation refinement and small-stack behavior</text><rect fill="#FBCFE8" height="33.9688" rx="12.5" ry="12.5" style="stroke:#334155;stroke-width:0.5;" width="245.3398" x="83.6846" y="450.1094"/><text fill="#000000" font-family="DejaVu Sans" font-size="12" lengthAdjust="spacing" textLength="225.3398" x="93.6846" y="471.248">Run vinary-doc-lint and release gates</text><ellipse cx="206.3545" cy="515.0781" fill="none" rx="11" ry="11" style="stroke:#222222;stroke-width:1;"/><ellipse cx="206.3545" cy="515.0781" fill="#222222" rx="6" ry="6" style="stroke:#222222;stroke-width:1;"/><rect fill="#FECACA" height="33.9688" rx="12.5" ry="12.5" style="stroke:#334155;stroke-width:0.5;" width="280.1387" x="416.709" y="342.1719"/><text fill="#000000" font-family="DejaVu Sans" font-size="12" lengthAdjust="spacing" textLength="260.1387" x="426.709" y="363.3105">Correct the specification or rejected design</text><rect fill="#C4B5FD" height="33.9688" rx="12.5" ry="12.5" style="stroke:#334155;stroke-width:0.5;" width="178.127" x="467.7148" y="396.1406"/><text fill="#000000" font-family="DejaVu Sans" font-size="12" lengthAdjust="spacing" textLength="158.127" x="477.7148" y="417.2793">Repeat proofs and models</text><ellipse cx="556.7783" cy="461.1094" fill="none" rx="11" ry="11" style="stroke:#222222;stroke-width:1;"/><ellipse cx="556.7783" cy="461.1094" fill="#222222" rx="6" ry="6" style="stroke:#222222;stroke-width:1;"/><line style="stroke:#334155;stroke-width:2;" x1="381.5664" x2="381.5664" y1="72.2969" y2="92.2969"/><polygon fill="#334155" points="377.5664,82.2969,381.5664,92.2969,385.5664,82.2969,381.5664,86.2969" style="stroke:#334155;stroke-width:1;stroke-linejoin:miter;stroke-miterlimit:10;"/><line style="stroke:#334155;stroke-width:2;" x1="381.5664" x2="381.5664" y1="126.2656" y2="146.2656"/><polygon fill="#334155" points="377.5664,136.2656,381.5664,146.2656,385.5664,136.2656,381.5664,140.2656" style="stroke:#334155;stroke-width:1;stroke-linejoin:miter;stroke-miterlimit:10;"/><line style="stroke:#334155;stroke-width:2;" x1="381.5664" x2="381.5664" y1="180.2344" y2="200.2344"/><polygon fill="#334155" points="377.5664,190.2344,381.5664,200.2344,385.5664,190.2344,381.5664,194.2344" style="stroke:#334155;stroke-width:1;stroke-linejoin:miter;stroke-miterlimit:10;"/><line style="stroke:#334155;stroke-width:2;" x1="381.5664" x2="381.5664" y1="234.2031" y2="254.2031"/><polygon fill="#334155" points="377.5664,244.2031,381.5664,254.2031,385.5664,244.2031,381.5664,248.2031" style="stroke:#334155;stroke-width:1;stroke-linejoin:miter;stroke-miterlimit:10;"/><line style="stroke:#334155;stroke-width:2;" x1="206.3545" x2="206.3545" y1="376.1406" y2="396.1406"/><polygon fill="#334155" points="202.3545,386.1406,206.3545,396.1406,210.3545,386.1406,206.3545,390.1406" style="stroke:#334155;stroke-width:1;stroke-linejoin:miter;stroke-miterlimit:10;"/><line style="stroke:#334155;stroke-width:2;" x1="206.3545" x2="206.3545" y1="430.1094" y2="450.1094"/><polygon fill="#334155" points="202.3545,440.1094,206.3545,450.1094,210.3545,440.1094,206.3545,444.1094" style="stroke:#334155;stroke-width:1;stroke-linejoin:miter;stroke-miterlimit:10;"/><line style="stroke:#334155;stroke-width:2;" x1="206.3545" x2="206.3545" y1="484.0781" y2="504.0781"/><polygon fill="#334155" points="202.3545,494.0781,206.3545,504.0781,210.3545,494.0781,206.3545,498.0781" style="stroke:#334155;stroke-width:1;stroke-linejoin:miter;stroke-miterlimit:10;"/><line style="stroke:#334155;stroke-width:2;" x1="556.7783" x2="556.7783" y1="376.1406" y2="396.1406"/><polygon fill="#334155" points="552.7783,386.1406,556.7783,396.1406,560.7783,386.1406,556.7783,390.1406" style="stroke:#334155;stroke-width:1;stroke-linejoin:miter;stroke-miterlimit:10;"/><line style="stroke:#334155;stroke-width:2;" x1="556.7783" x2="556.7783" y1="430.1094" y2="450.1094"/><polygon fill="#334155" points="552.7783,440.1094,556.7783,450.1094,560.7783,440.1094,556.7783,444.1094" style="stroke:#334155;stroke-width:1;stroke-linejoin:miter;stroke-miterlimit:10;"/><line style="stroke:#334155;stroke-width:2;" x1="272.0247" x2="206.3545" y1="320.1719" y2="320.1719"/><line style="stroke:#334155;stroke-width:2;" x1="206.3545" x2="206.3545" y1="320.1719" y2="342.1719"/><polygon fill="#334155" points="202.3545,332.1719,206.3545,342.1719,210.3545,332.1719,206.3545,336.1719" style="stroke:#334155;stroke-width:1;stroke-linejoin:miter;stroke-miterlimit:10;"/><line style="stroke:#334155;stroke-width:2;" x1="491.1082" x2="556.7783" y1="320.1719" y2="320.1719"/><line style="stroke:#334155;stroke-width:2;" x1="556.7783" x2="556.7783" y1="320.1719" y2="342.1719"/><polygon fill="#334155" points="552.7783,332.1719,556.7783,342.1719,560.7783,332.1719,556.7783,336.1719" style="stroke:#334155;stroke-width:1;stroke-linejoin:miter;stroke-miterlimit:10;"/><line style="stroke:#334155;stroke-width:2;" x1="381.5664" x2="381.5664" y1="288.1719" y2="308.1719"/><polygon fill="#334155" points="377.5664,298.1719,381.5664,308.1719,385.5664,298.1719,381.5664,302.1719" style="stroke:#334155;stroke-width:1;stroke-linejoin:miter;stroke-miterlimit:10;"/><?plantuml-src PP9FRzim3CNl_XG4Ucan6EYQPisweeF_2HYm3KDRxCx8TCn6bbnASHOC--wJdMH8kuikV3zIxv5-pRP7mGwMgDShSHjR5yuuWJErK9ag4lzFKLE36nEKi-4xTWGbFUFF3JoYzISgtsBjjcnNqA3nT5B9HDpsq7msktu_dxyjFhMirvQyXwkJ4kh00uST_4u0yhVVhAwgXReSAqvgajVz0Kh6pjdwFqnLQbRSd0XEwVnwFhlycFn9ai3142Wd7PgqOV41Le9zcwv9B9cOYU61P9SaFg24vBQaXYr18EayeAt1BJt9WClOnbE7Dh3sd-3kxgpCgqnLz_V9xGzn0y7BnWKc6oPgYmCr4fC6WriFRE71wPU9AwxpkIf7xfkBuu5-zOOrXxIHSIk66z8x7ST5wEbhzcw2iXirAoz7w65Z8zBYniTKHr5DFSN77fo14upqHAco-h388iKDd6V6G2-KSjSRwg8U0piBAmpaeKVlFrz0QCd2-OxyHKpszijH2HgjiwpHGF7uC1dac11EFtWi2jYdEStCLPbFiSG6HKjw3My6ofHmTqpAnysODAOVbKjgSM0dhot7HgFfWItABgsTJWqVO253w6blOcyvBrIrc2WVN9zGl64ujsuoL3WHqc6q2RudpKtqD7qgNetGSwnH7M_2yyhkkrL5LcI7FyISCSG8dMlsfz6D-_ElbteSQsjk_W80?></g></svg>