<svg xmlns="http://www.w3.org/2000/svg" xmlns:xlink="http://www.w3.org/1999/xlink" contentStyleType="text/css" data-diagram-type="DESCRIPTION" height="276px" preserveAspectRatio="none" style="width:1438px;height:276px;background:#F8FAFC;" version="1.1" viewBox="0 0 1438 276" width="1438px" zoomAndPan="magnify"><?plantuml $version$?><defs/><g><rect fill="#F8FAFC" height="276" style="stroke:none;stroke-width:1;" width="1438" x="0" y="0"/><g class="title" data-source-line="1"><text fill="#000000" font-family="DejaVu Sans" font-size="14" font-weight="700" lengthAdjust="spacing" textLength="422.4883" x="504.3776" y="22.9951">Neutral graph core and portable boundary ownership</text></g><!--entity domain--><g class="entity" data-qualified-name="domain" data-source-line="14" id="ent0001"><rect fill="#FCE7F3" height="62.5938" rx="2.5" ry="2.5" style="stroke:#1E3A5F;stroke-width:0.5;" width="210.3379" x="7" y="52.4369"/><rect fill="#FCE7F3" height="10" style="stroke:#1E3A5F;stroke-width:0.5;" width="15" x="197.3379" y="57.4369"/><rect fill="#FCE7F3" height="2" style="stroke:#1E3A5F;stroke-width:0.5;" width="4" x="195.3379" y="59.4369"/><rect fill="#FCE7F3" height="2" style="stroke:#1E3A5F;stroke-width:0.5;" width="4" x="195.3379" y="63.4369"/><text fill="#0F172A" font-family="DejaVu Sans" font-size="14" lengthAdjust="spacing" textLength="113.5654" x="22" y="85.432">Domain adapter</text><text fill="#0F172A" font-family="DejaVu Sans" font-size="14" lengthAdjust="spacing" textLength="170.3379" x="22" y="101.7289">stable labels + meaning</text></g><!--entity core--><g class="entity" data-qualified-name="core" data-source-line="15" id="ent0002"><rect fill="#DBEAFE" height="78.8906" rx="2.5" ry="2.5" style="stroke:#1E3A5F;stroke-width:0.5;" width="232.5684" x="400.88" y="44.2969"/><rect fill="#DBEAFE" height="10" style="stroke:#1E3A5F;stroke-width:0.5;" width="15" x="613.4484" y="49.2969"/><rect fill="#DBEAFE" height="2" style="stroke:#1E3A5F;stroke-width:0.5;" width="4" x="611.4484" y="51.2969"/><rect fill="#DBEAFE" height="2" style="stroke:#1E3A5F;stroke-width:0.5;" width="4" x="611.4484" y="55.2969"/><text fill="#0F172A" font-family="DejaVu Sans" font-size="14" lengthAdjust="spacing" textLength="65.9326" x="415.88" y="77.292">libvgraph</text><text fill="#0F172A" font-family="DejaVu Sans" font-size="14" lengthAdjust="spacing" textLength="192.5684" x="415.88" y="93.5889">payload-free canonical CSR</text><text fill="#0F172A" font-family="DejaVu Sans" font-size="14" lengthAdjust="spacing" textLength="184.3584" x="415.88" y="109.8857">SCC &#183; quotient &#183; wavefront</text></g><!--entity interop--><g class="entity" data-qualified-name="interop" data-source-line="16" id="ent0003"><rect fill="#D1FAE5" height="78.8906" rx="2.5" ry="2.5" style="stroke:#1E3A5F;stroke-width:0.5;" width="200.9453" x="832.7" y="44.2969"/><rect fill="#D1FAE5" height="10" style="stroke:#1E3A5F;stroke-width:0.5;" width="15" x="1013.6453" y="49.2969"/><rect fill="#D1FAE5" height="2" style="stroke:#1E3A5F;stroke-width:0.5;" width="4" x="1011.6453" y="51.2969"/><rect fill="#D1FAE5" height="2" style="stroke:#1E3A5F;stroke-width:0.5;" width="4" x="1011.6453" y="55.2969"/><text fill="#0F172A" font-family="DejaVu Sans" font-size="14" lengthAdjust="spacing" textLength="121.0576" x="847.7" y="77.292">libvgraph-interop</text><text fill="#0F172A" font-family="DejaVu Sans" font-size="14" lengthAdjust="spacing" textLength="160.9453" x="847.7" y="93.5889">schema &#183; codec &#183; limits</text><text fill="#0F172A" font-family="DejaVu Sans" font-size="14" lengthAdjust="spacing" textLength="157.5752" x="847.7" y="109.8857">profile binding &#183; digest</text></g><!--entity store--><g class="entity" data-qualified-name="store" data-source-line="17" id="ent0004"><path d="M1197.1,62.9369 C1197.1,52.9369 1305.1718,52.9369 1305.1718,52.9369 C1305.1718,52.9369 1413.2436,52.9369 1413.2436,62.9369 L1413.2436,104.5306 C1413.2436,114.5306 1305.1718,114.5306 1305.1718,114.5306 C1305.1718,114.5306 1197.1,114.5306 1197.1,104.5306 L1197.1,62.9369" fill="#FEF3C7" style="stroke:#7C2D12;stroke-width:0.5;"/><path d="M1197.1,62.9369 C1197.1,72.9369 1305.1718,72.9369 1305.1718,72.9369 C1305.1718,72.9369 1413.2436,72.9369 1413.2436,62.9369" fill="none" style="stroke:#7C2D12;stroke-width:0.5;"/><text fill="#431407" font-family="DejaVu Sans" font-size="14" lengthAdjust="spacing" textLength="101.2402" x="1207.1" y="89.932">Portable bytes</text><text fill="#431407" font-family="DejaVu Sans" font-size="14" lengthAdjust="spacing" textLength="196.1436" x="1207.1" y="106.2289">or content-addressed cache</text></g><!--entity validator--><g class="entity" data-qualified-name="validator" data-source-line="18" id="ent0005"><rect fill="#EDE9FE" height="62.5938" rx="2.5" ry="2.5" style="stroke:#1E3A5F;stroke-width:0.5;" width="260.8691" x="1140.73" y="200.1869"/><rect fill="#EDE9FE" height="10" style="stroke:#1E3A5F;stroke-width:0.5;" width="15" x="1381.5991" y="205.1869"/><rect fill="#EDE9FE" height="2" style="stroke:#1E3A5F;stroke-width:0.5;" width="4" x="1379.5991" y="207.1869"/><rect fill="#EDE9FE" height="2" style="stroke:#1E3A5F;stroke-width:0.5;" width="4" x="1379.5991" y="211.1869"/><text fill="#0F172A" font-family="DejaVu Sans" font-size="14" lengthAdjust="spacing" textLength="155.1074" x="1155.73" y="233.182">Independent validator</text><text fill="#0F172A" font-family="DejaVu Sans" font-size="14" lengthAdjust="spacing" textLength="220.8691" x="1155.73" y="249.4789">exact profile + expected digest</text></g><g class="entity" data-qualified-name="GMN12" data-source-line="27" id="ent0013"><path d="M381.87,211.3469 L381.87,251.6125 A0,0 0 0 0 381.87,251.6125 L652.4725,251.6125 A0,0 0 0 0 652.4725,251.6125 L652.4725,221.3469 L642.4725,211.3469 L521.17,211.3469 L517.17,123.4069 L513.17,211.3469 L381.87,211.3469 A0,0 0 0 0 381.87,211.3469" fill="#E0F2FE" style="stroke:#181818;stroke-width:0.5;"/><path d="M642.4725,211.3469 L642.4725,221.3469 L652.4725,221.3469 L642.4725,211.3469" fill="#E0F2FE" style="stroke:#181818;stroke-width:0.5;"/><text fill="#000000" font-family="DejaVu Sans" font-size="13" lengthAdjust="spacing" textLength="211.5293" x="387.87" y="228.4138">No serialization, hashing, libcpg,</text><text fill="#000000" font-family="DejaVu Sans" font-size="13" lengthAdjust="spacing" textLength="249.6025" x="387.87" y="243.5466">parser, e-graph, or domain semantics.</text></g><g class="entity" data-qualified-name="GMN15" data-source-line="32" id="ent0016"><path d="M793.53,203.7769 L793.53,259.1753 A0,0 0 0 0 793.53,259.1753 L1072.8098,259.1753 A0,0 0 0 0 1072.8098,259.1753 L1072.8098,213.7769 L1062.8098,203.7769 L937.17,203.7769 L933.17,123.4069 L929.17,203.7769 L793.53,203.7769 A0,0 0 0 0 793.53,203.7769" fill="#DCFCE7" style="stroke:#181818;stroke-width:0.5;"/><path d="M1062.8098,203.7769 L1062.8098,213.7769 L1072.8098,213.7769 L1062.8098,203.7769" fill="#DCFCE7" style="stroke:#181818;stroke-width:0.5;"/><text fill="#000000" font-family="DejaVu Sans" font-size="13" lengthAdjust="spacing" textLength="187.5288" x="799.53" y="220.8438">Request-local mutable state.</text><text fill="#000000" font-family="DejaVu Sans" font-size="13" lengthAdjust="spacing" textLength="214.5952" x="799.53" y="235.9766">Immutable values are shareable.</text><text fill="#000000" font-family="DejaVu Sans" font-size="13" lengthAdjust="spacing" textLength="258.2798" x="799.53" y="251.1094">No global lock or input-depth recursion.</text></g><!--link domain to core--><g class="link" data-entity-1="ent0001" data-entity-2="ent0002" data-link-type="dependency" data-source-line="20" id="lnk6"><path d="M217.78,83.7369 C273.92,83.7369 338.04,83.7369 395.73,83.7369" fill="none" id="domain-to-core" style="stroke:#181818;stroke-width:1;"/><polygon fill="#181818" points="400.73,83.7369,391.73,79.7369,395.73,83.7369,391.73,87.7369,400.73,83.7369" style="stroke:#181818;stroke-width:1;stroke-linejoin:miter;stroke-miterlimit:10;"/><text fill="#000000" font-family="DejaVu Sans" font-size="13" lengthAdjust="spacing" textLength="147.4624" x="235.61" y="76.8038">canonical dense graph</text></g><!--link core to interop--><g class="link" data-entity-1="ent0002" data-entity-2="ent0003" data-link-type="dependency" data-source-line="21" id="lnk7"><path d="M633.88,83.7369 C696.37,83.7369 767.57,83.7369 827.44,83.7369" fill="none" id="core-to-interop" style="stroke:#181818;stroke-width:1;"/><polygon fill="#181818" points="832.44,83.7369,823.44,79.7369,827.44,83.7369,823.44,87.7369,832.44,83.7369" style="stroke:#181818;stroke-width:1;stroke-linejoin:miter;stroke-miterlimit:10;"/><text fill="#000000" font-family="DejaVu Sans" font-size="13" lengthAdjust="spacing" textLength="163.6362" x="651.57" y="76.8038">forward offsets + targets</text></g><!--link interop to store--><g class="link" data-entity-1="ent0003" data-entity-2="ent0004" data-link-type="dependency" data-source-line="22" id="lnk8"><path d="M1033.84,83.7369 C1084.3,83.7369 1140.45,83.7369 1191.92,83.7369" fill="none" id="interop-to-store" style="stroke:#181818;stroke-width:1;"/><polygon fill="#181818" points="1196.92,83.7369,1187.92,79.7369,1191.92,83.7369,1187.92,87.7369,1196.92,83.7369" style="stroke:#181818;stroke-width:1;stroke-linejoin:miter;stroke-miterlimit:10;"/><text fill="#000000" font-family="DejaVu Sans" font-size="13" lengthAdjust="spacing" textLength="127.4546" x="1051.87" y="76.8038">v1.0 bytes + digest</text></g><!--link store to validator--><g class="link" data-entity-1="ent0004" data-entity-2="ent0005" data-link-type="dependency" data-source-line="23" id="lnk9"><path d="M1298.12,114.9369 C1292.33,139.7869 1285.2868,169.9778 1279.4568,194.9478" fill="none" id="store-to-validator" style="stroke:#181818;stroke-width:1;"/><polygon fill="#181818" points="1278.32,199.8169,1284.2615,191.962,1279.4568,194.9478,1276.471,190.1431,1278.32,199.8169" style="stroke:#181818;stroke-width:1;stroke-linejoin:miter;stroke-miterlimit:10;"/><text fill="#000000" font-family="DejaVu Sans" font-size="13" lengthAdjust="spacing" textLength="131.9424" x="1290.19" y="166.2538">untrusted candidate</text></g><!--reverse link core to validator--><g class="link" data-entity-1="ent0002" data-entity-2="ent0005" data-link-type="dependency" data-source-line="24" id="lnk11"><path d="M638.6491,108.2159 C775.6791,134.7059 997.57,177.5969 1140.45,205.2169" fill="none" id="core-backto-validator" style="stroke:#181818;stroke-width:1;"/><polygon fill="#181818" points="633.74,107.2669,641.8172,112.9024,638.6491,108.2159,643.3356,105.0478,633.74,107.2669" style="stroke:#181818;stroke-width:1;stroke-linejoin:miter;stroke-miterlimit:10;"/><text fill="#000000" font-family="DejaVu Sans" font-size="13" lengthAdjust="spacing" textLength="146.0278" x="940.31" y="166.2538">validated dense graph</text></g><?plantuml-src RLHDRzim3BthLn3DiN6GZnRPSXYGEZRGIp6qm4wzq1PjQxKbLvAJTiD-r-xxPQFiV7ZeBe52KkyzFbBsojS43zHvYpMK5jiAScC9K4jeZVMOSJupdPPety4SD5bNgLQu5wLRjDX0XlbBQKD5R6fZOP9-IhTfFAfm5KfpKBg40cj7euoa0hlQfqRx1sm8TlGTltNmXDgDgdBJj4QJzl1J0DmPAyaUkHR9QdkRSZH076FpTB5URiMlCGzo8-Ze8y0wNkuMoty1RbQBc_cQ0SI5-Mfd6bGQK6BhoJvhDrXJOqQrWsje23MtU0NeG0wrapHErkbgZ5AhRD-x_CpAtck3CYei4UIeZLOvpo1-UdpMJt4CVtx3QsUy2lVuVC0z5PP5zWpzZ2QxksIR9l_5ZvHccQPbeNb53GQ8t4ZAmw5MZVAE9LXJg31VfMKO3wUaAiaD74S4fbcas-HMd4sy-dfUZ7TFZCEcvQoC5KGefINdI79BJDm3ET-hJPDq5Q_7Qk-rf9RuX__iiLRCODXQUiFSmqdSDT1RIxbdo96uSpbCabtocLqGHzSZgyhAHry6ZpOZQvc7rVVsY3vvBZsrke72s0DQ2QOe7FamM8-sv9CurPml3MrjOB-OpGSdk7gGA8PSn6klkV8YTWETzhPplZU8NUSmYKi-ggaOQJycGkiZxK8R7nwbzwPXeSTbIERfacruCE38Ahxu0xqoUWeLyelLvPJ7dkLjEHNy9hXa2XJrU5DWugDvZbT5UvMxcU2vG23wG7VPYpWik7YaruvxZceJJ6wwOJNuVNYQYVlc5E1Uk0oGjV87mL88peBSiZOPN-JhBq49lzdEHxmOlW9BUMSTTt6HynS0?></g></svg>