<svg xmlns="http://www.w3.org/2000/svg" xmlns:xlink="http://www.w3.org/1999/xlink" contentStyleType="text/css" data-diagram-type="DESCRIPTION" height="854px" preserveAspectRatio="none" style="width:370px;height:854px;background:#F7FAFC;" version="1.1" viewBox="0 0 370 854" width="370px" zoomAndPan="magnify"><?plantuml $version$?><defs/><g><rect fill="#F7FAFC" height="854" style="stroke:none;stroke-width:1;" width="370" x="0" y="0"/><g class="title" data-source-line="8"><text fill="#000000" font-family="DejaVu Sans" font-size="14" font-weight="700" lengthAdjust="spacing" textLength="226.5156" x="68.6575" y="22.9951">SCC quotient map and fibers</text></g><!--cluster Source graph V--><g class="cluster" data-qualified-name="Source graph V" data-source-line="10" id="ent0001"><rect fill="#DBEAFE" height="424.33" rx="2.5" ry="2.5" style="stroke:#181818;stroke-width:1;" width="137" x="7" y="44.2969"/><text fill="#000000" font-family="DejaVu Sans" font-size="14" font-weight="700" lengthAdjust="spacing" textLength="121.3105" x="14.8447" y="59.292">Source graph V</text></g><!--cluster Component set C--><g class="cluster" data-qualified-name="Component set C" data-source-line="21" id="ent0010"><rect fill="#F1F5F9" height="362.78" rx="2.5" ry="2.5" style="stroke:#181818;stroke-width:1;" width="156" x="191" y="373.1869"/><text fill="#000000" font-family="DejaVu Sans" font-size="14" font-weight="700" lengthAdjust="spacing" textLength="134.7842" x="201.6079" y="388.182">Component set C</text></g><!--entity v0--><g class="entity" data-qualified-name="Source graph V.v0" data-source-line="11" id="ent0002"><rect fill="#BFDBFE" height="36.2969" rx="2.5" ry="2.5" style="stroke:#181818;stroke-width:0.5;" width="78.3994" x="35.8" y="79.2969"/><text fill="#000000" font-family="DejaVu Sans" font-size="14" lengthAdjust="spacing" textLength="58.3994" x="45.8" y="102.292">vertex 0</text></g><!--entity v1--><g class="entity" data-qualified-name="Source graph V.v1" data-source-line="12" id="ent0003"><rect fill="#BFDBFE" height="36.2969" rx="2.5" ry="2.5" style="stroke:#181818;stroke-width:0.5;" width="78.3994" x="35.8" y="176.5869"/><text fill="#000000" font-family="DejaVu Sans" font-size="14" lengthAdjust="spacing" textLength="58.3994" x="45.8" y="199.582">vertex 1</text></g><!--entity v2--><g class="entity" data-qualified-name="Source graph V.v2" data-source-line="13" id="ent0004"><rect fill="#DCFCE7" height="36.2969" rx="2.5" ry="2.5" style="stroke:#181818;stroke-width:0.5;" width="78.3994" x="35.8" y="289.8869"/><text fill="#000000" font-family="DejaVu Sans" font-size="14" lengthAdjust="spacing" textLength="58.3994" x="45.8" y="312.882">vertex 2</text></g><!--entity v3--><g class="entity" data-qualified-name="Source graph V.v3" data-source-line="14" id="ent0005"><rect fill="#FEF3C7" height="36.2969" rx="2.5" ry="2.5" style="stroke:#181818;stroke-width:0.5;" width="78.3994" x="35.8" y="416.3369"/><text fill="#000000" font-family="DejaVu Sans" font-size="14" lengthAdjust="spacing" textLength="58.3994" x="45.8" y="439.332">vertex 3</text></g><!--entity c0--><g class="entity" data-qualified-name="Component set C.c0" data-source-line="22" id="ent0011"><rect fill="#93C5FD" height="52.5938" rx="2.5" ry="2.5" style="stroke:#181818;stroke-width:0.5;" width="101.0537" x="229.47" y="408.1869"/><text fill="#000000" font-family="DejaVu Sans" font-size="14" lengthAdjust="spacing" textLength="16.6045" x="239.47" y="431.182">c0</text><text fill="#000000" font-family="DejaVu Sans" font-size="14" lengthAdjust="spacing" textLength="81.0537" x="239.47" y="447.4789">fiber {0, 1}</text></g><!--entity c1--><g class="entity" data-qualified-name="Component set C.c1" data-source-line="23" id="ent0012"><rect fill="#86EFAC" height="52.5938" rx="2.5" ry="2.5" style="stroke:#181818;stroke-width:0.5;" width="83.2461" x="207.38" y="537.7769"/><text fill="#000000" font-family="DejaVu Sans" font-size="14" lengthAdjust="spacing" textLength="16.6045" x="217.38" y="560.772">c1</text><text fill="#000000" font-family="DejaVu Sans" font-size="14" lengthAdjust="spacing" textLength="63.2461" x="217.38" y="577.0689">fiber {2}</text></g><!--entity c2--><g class="entity" data-qualified-name="Component set C.c2" data-source-line="24" id="ent0013"><rect fill="#FCD34D" height="52.5938" rx="2.5" ry="2.5" style="stroke:#181818;stroke-width:0.5;" width="83.2461" x="207.38" y="667.3769"/><text fill="#000000" font-family="DejaVu Sans" font-size="14" lengthAdjust="spacing" textLength="16.6045" x="217.38" y="690.372">c2</text><text fill="#000000" font-family="DejaVu Sans" font-size="14" lengthAdjust="spacing" textLength="63.2461" x="217.38" y="706.6689">fiber {3}</text></g><!--link v0 to v1--><g class="link" data-entity-1="ent0002" data-entity-2="ent0003" data-link-type="dependency" data-source-line="15" id="lnk6"><path d="M64.57,115.9269 C60.97,133.1169 59.9507,154.324 63.5607,171.484" fill="none" id="v0-to-v1" style="stroke:#2563EB;stroke-width:2;"/><polygon fill="#2563EB" points="64.59,176.3769,66.6515,166.7462,63.5607,171.484,58.8229,168.3931,64.59,176.3769" style="stroke:#2563EB;stroke-width:2;stroke-linejoin:miter;stroke-miterlimit:10;"/></g><!--link v1 to v0--><g class="link" data-entity-1="ent0003" data-entity-2="ent0002" data-link-type="dependency" data-source-line="16" id="lnk7"><path d="M85.41,176.3769 C89.02,159.2169 90.0549,138.0107 86.4549,120.8207" fill="none" id="v1-to-v0" style="stroke:#2563EB;stroke-width:2;"/><polygon fill="#2563EB" points="85.43,115.9269,83.3597,125.5557,86.4549,120.8207,91.1899,123.9159,85.43,115.9269" style="stroke:#2563EB;stroke-width:2;stroke-linejoin:miter;stroke-miterlimit:10;"/></g><!--link v1 to v2--><g class="link" data-entity-1="ent0003" data-entity-2="ent0004" data-link-type="dependency" data-source-line="17" id="lnk8"><path d="M75,213.1269 C75,233.9169 75,263.5069 75,284.3969" fill="none" id="v1-to-v2" style="stroke:#16A34A;stroke-width:2;"/><polygon fill="#16A34A" points="75,289.3969,79,280.3969,75,284.3969,71,280.3969,75,289.3969" style="stroke:#16A34A;stroke-width:2;stroke-linejoin:miter;stroke-miterlimit:10;"/></g><!--link v2 to v3--><g class="link" data-entity-1="ent0004" data-entity-2="ent0005" data-link-type="dependency" data-source-line="18" id="lnk9"><path d="M75,326.6069 C75,350.3169 75,387.3369 75,411.0069" fill="none" id="v2-to-v3" style="stroke:#D97706;stroke-width:2;"/><polygon fill="#D97706" points="75,416.0069,79,407.0069,75,411.0069,71,407.0069,75,416.0069" style="stroke:#D97706;stroke-width:2;stroke-linejoin:miter;stroke-miterlimit:10;"/></g><!--link c0 to c1--><g class="link" data-entity-1="ent0011" data-entity-2="ent0012" data-link-type="dependency" data-source-line="25" id="lnk14"><path d="M273.8,460.9969 C268.39,483.2469 261.7698,510.508 256.3698,532.748" fill="none" id="c0-to-c1" style="stroke:#16A34A;stroke-width:2;"/><polygon fill="#16A34A" points="255.19,537.6069,261.2006,529.8048,256.3698,532.748,253.4265,527.9172,255.19,537.6069" style="stroke:#16A34A;stroke-width:2;stroke-linejoin:miter;stroke-miterlimit:10;"/><text fill="#000000" font-family="DejaVu Sans" font-size="13" lengthAdjust="spacing" textLength="87.4707" x="267.36" y="503.8438">condensation</text></g><!--link c1 to c2--><g class="link" data-entity-1="ent0012" data-entity-2="ent0013" data-link-type="dependency" data-source-line="26" id="lnk15"><path d="M249,590.5869 C249,612.8469 249,639.9569 249,662.1969" fill="none" id="c1-to-c2" style="stroke:#D97706;stroke-width:2;"/><polygon fill="#D97706" points="249,667.1969,253,658.1969,249,662.1969,245,658.1969,249,667.1969" style="stroke:#D97706;stroke-width:2;stroke-linejoin:miter;stroke-miterlimit:10;"/><text fill="#000000" font-family="DejaVu Sans" font-size="13" lengthAdjust="spacing" textLength="87.4707" x="250" y="633.4438">condensation</text></g><!--link v0 to c0--><g class="link" data-entity-1="ent0002" data-entity-2="ent0011" data-link-type="dependency" data-source-line="29" id="lnk16"><path d="M88.2,115.9269 C99.94,131.6269 117.47,155.4069 132,176.5869 C165.89,225.9869 174.77,238.1769 205,289.8869 C221.82,318.6569 224.57,326.6569 240,356.1869 C248.96,373.3269 256.6674,388.2035 264.4274,403.2435" fill="none" id="v0-to-c0" style="stroke:#64748B;stroke-width:2;stroke-dasharray:7,7;"/><polygon fill="#64748B" points="266.72,407.6869,266.148,397.8546,264.4274,403.2435,259.0386,401.5228,266.72,407.6869" style="stroke:#64748B;stroke-width:2;stroke-linejoin:miter;stroke-miterlimit:10;"/><text fill="#000000" font-family="DejaVu Sans" font-size="13" lengthAdjust="spacing" textLength="8.252" x="187.91" y="255.9538">q</text></g><!--link v1 to c0--><g class="link" data-entity-1="ent0003" data-entity-2="ent0011" data-link-type="dependency" data-source-line="30" id="lnk17"><path d="M90.07,213.2269 C125.86,254.7169 212.7951,355.54 254.6951,404.14" fill="none" id="v1-to-c0" style="stroke:#64748B;stroke-width:2;stroke-dasharray:7,7;"/><polygon fill="#64748B" points="257.96,407.9269,255.1128,398.4985,254.6951,404.14,249.0537,403.7223,257.96,407.9269" style="stroke:#64748B;stroke-width:2;stroke-linejoin:miter;stroke-miterlimit:10;"/><text fill="#000000" font-family="DejaVu Sans" font-size="13" lengthAdjust="spacing" textLength="8.252" x="187.88" y="312.6038">q</text></g><!--link v2 to c1--><g class="link" data-entity-1="ent0004" data-entity-2="ent0012" data-link-type="dependency" data-source-line="31" id="lnk18"><path d="M95.29,326.6069 C106.8,337.1369 121.05,351.1769 132,365.1869 C155.53,395.2969 206.9123,486.7203 232.5223,533.0803" fill="none" id="v2-to-c1" style="stroke:#64748B;stroke-width:2;stroke-dasharray:7,7;"/><polygon fill="#64748B" points="234.94,537.4569,234.0894,527.6448,232.5223,533.0803,227.0868,531.5131,234.94,537.4569" style="stroke:#64748B;stroke-width:2;stroke-linejoin:miter;stroke-miterlimit:10;"/><text fill="#000000" font-family="DejaVu Sans" font-size="13" lengthAdjust="spacing" textLength="8.252" x="201.6" y="439.0538">q</text></g><!--link v3 to c2--><g class="link" data-entity-1="ent0005" data-entity-2="ent0013" data-link-type="dependency" data-source-line="32" id="lnk19"><path d="M86.69,452.7569 C116.63,497.0169 193.4384,610.5455 228.8184,662.8455" fill="none" id="v3-to-c2" style="stroke:#64748B;stroke-width:2;stroke-dasharray:7,7;"/><polygon fill="#64748B" points="231.62,666.9869,229.8903,657.2911,228.8184,662.8455,223.264,661.7736,231.62,666.9869" style="stroke:#64748B;stroke-width:2;stroke-linejoin:miter;stroke-miterlimit:10;"/><text fill="#000000" font-family="DejaVu Sans" font-size="13" lengthAdjust="spacing" textLength="8.252" x="180.3" y="568.6438">q</text></g><g class="legend" data-source-line="34"><rect fill="none" height="79.1875" rx="7.5" ry="7.5" style="stroke:#000000;stroke-width:1;" width="275.0977" x="76.733" y="755.9669"/><text fill="#000000" font-family="DejaVu Sans" font-size="14" font-weight="700" lengthAdjust="spacing" textLength="41.2139" x="86.6071" y="775.962">Color</text><text fill="#000000" font-family="DejaVu Sans" font-size="14" font-weight="700" lengthAdjust="spacing" textLength="67.6279" x="140.9801" y="775.962">Meaning</text><rect fill="#93C5FD" height="16.2969" style="stroke:none;stroke-width:1;" width="54.373" x="81.733" y="779.2638"/><text fill="#000000" font-family="DejaVu Sans" font-size="14" lengthAdjust="spacing" textLength="30.2627" x="86.1832" y="792.2589">blue</text><text fill="#000000" font-family="DejaVu Sans" font-size="14" lengthAdjust="spacing" textLength="201.8242" x="140.5563" y="792.2589">one strongly connected fiber</text><rect fill="#86EFAC" height="16.2969" style="stroke:none;stroke-width:1;" width="54.373" x="81.733" y="795.5606"/><text fill="#000000" font-family="DejaVu Sans" font-size="14" lengthAdjust="spacing" textLength="40.7422" x="86.1832" y="808.5557">green</text><text fill="#000000" font-family="DejaVu Sans" font-size="14" lengthAdjust="spacing" textLength="192.4932" x="140.5563" y="808.5557">downstream singleton fiber</text><rect fill="#FCD34D" height="16.2969" style="stroke:none;stroke-width:1;" width="54.373" x="81.733" y="811.8575"/><text fill="#000000" font-family="DejaVu Sans" font-size="14" lengthAdjust="spacing" textLength="45.4727" x="86.1832" y="824.8526">amber</text><text fill="#000000" font-family="DejaVu Sans" font-size="14" lengthAdjust="spacing" textLength="164.0762" x="140.5563" y="824.8526">terminal singleton fiber</text><line style="stroke:#000000;stroke-width:1;" x1="81.733" x2="346.8307" y1="762.9669" y2="762.9669"/><line style="stroke:#000000;stroke-width:1;" x1="81.733" x2="346.8307" y1="779.2638" y2="779.2638"/><line style="stroke:#000000;stroke-width:1;" x1="81.733" x2="346.8307" y1="795.5606" y2="795.5606"/><line style="stroke:#000000;stroke-width:1;" x1="81.733" x2="346.8307" y1="811.8575" y2="811.8575"/><line style="stroke:#000000;stroke-width:1;" x1="81.733" x2="346.8307" y1="828.1544" y2="828.1544"/><line style="stroke:#000000;stroke-width:1;" x1="81.733" x2="81.733" y1="762.9669" y2="828.1544"/><line style="stroke:#000000;stroke-width:1;" x1="136.1061" x2="136.1061" y1="762.9669" y2="828.1544"/><line style="stroke:#000000;stroke-width:1;" x1="346.8307" x2="346.8307" y1="762.9669" y2="828.1544"/></g><?plantuml-src VPDDSvim48Rl_8eT-vfa0FaZphIUmGBTseixkQGzoB36r20vGYJDnFdlMG6rNSRJ6_FgaNRtGQhtXJf88olOo7IV6zseZEjI6nYBkOW4z-eJaU5MDgKLMjdliaA8yRTyR60jLNr1HSRer_u8nYR1T3fS_B4hqht2keRmOkb0zMMEQ_jM8XXChLHvYHT0lPEPVYrK3bjPrkXvjh24hZc7vqRR0fM5IXv0gWosnGPDxNdzeJ1QwyQa2BcHXnqyZc0Shv989F3kmRaOZ5xGMFm3_WXa3Iy-Z5SYNedaAXHqKF1VAEoWa0fomPFvLOXr42FdYM3SGLJxzcaSJcSiMVswNL8P5mQ3q3-5mInYawWDGnU6BemNyxa_QqFcVLpOuBewQEM4rMY1amuHYAbO37Ma_a_LgeHt_mQ2ZxRFbBGi69-AU0079pZiIN9pFqj4n0TaU29PJv8WmMCsSMUc_dcYcuqkCpS1dVK0gLOPgbhQGYi71kSfps0u16boqdbtzpIUJUQJ-rOTrNY0Pu_aNS_3OHvqEHlcOPjx9UP8zyuK-SvIPyUlq3q1-lY6KhbRUtJvbrxT4ZPbWt04-WrGMwF9p9jhMv4cx2_mtosTmoNTNaH5U-WPADg3xb4KJgdLwjyTdSiboAeDmQAf2YNBAportJN_2G00?></g></svg>